# xmcd CD database file
# Generated: Fri Jun 14 11:08:07 2002 by KSCD
# 
# Track frame offsets:
#       150
#       13928
#       37533
#       52680
#       65960
#       88885
#       114818
#       127860
#       139910
#       160195
#       183688
#       200023
#
# Disc length: 2851 seconds
#
# Revision: 2
# Processed by: cddbd v1.4PL0 Copyright (c) Steve Scherf et al.
# Submitted via: Kscd 1.3.0
#
DISCID=a00b210c
DTITLE=Luis Borda y Zaida Saiace - nouveau tango
DYEAR=1900
DGENRE=
TTITLE0=Don Augustin Bardi
TTITLE1=El viento de verdad
TTITLE2=El beso
TTITLE3=Ritmo de baionga
TTITLE4=Estampa del norte
TTITLE5=Nouveau tango
TTITLE6=Milonga de mis amores
TTITLE7=Daricha
TTITLE8=El puente
TTITLE9=Encuentro
TTITLE10=Contrabajeando
TTITLE11=Ritmo de Baionga (Baionsamba)
EXTD=
EXTT0=
EXTT1=
EXTT2=
EXTT3=
EXTT4=
EXTT5=
EXTT6=
EXTT7=
EXTT8=
EXTT9=
EXTT10=
EXTT11=
PLAYORDER=
